<?xml version="1.0" encoding="UTF-8"?>
<svg version="1.1" xmlns="http://www.w3.org/2000/svg" width="512" height="512">
<path d="M0 0 C1.42976881 0.0022229 2.85953769 0.00439939 4.28930664 0.00653076 C24.86547628 0.04901969 45.14429933 0.49889874 65.5625 3.3125 C67.10485355 3.51415667 68.64734132 3.71478876 70.18994141 3.91455078 C126.2613787 11.24220511 181.16590906 25.49079045 232.5625 49.3125 C233.45356445 49.72226074 234.34462891 50.13202148 235.26269531 50.55419922 C249.23859664 56.98859664 249.23859664 56.98859664 250.5625 58.3125 C250.66580529 59.65730783 250.70099904 61.0074483 250.70776367 62.35620117 C250.71404282 63.22142395 250.72032196 64.08664673 250.72679138 64.97808838 C250.72800491 65.9276239 250.72921844 66.87715942 250.73046875 67.85546875 C250.73470352 68.83811707 250.73893829 69.82076538 250.74330139 70.83319092 C250.75327764 74.05550299 250.75320473 77.27767506 250.75 80.5 C250.74939575 81.59659943 250.7487915 82.69319885 250.74816895 83.82302856 C250.72176895 101.40655018 250.30070601 118.80372064 248.5625 136.3125 C248.43891113 137.58915527 248.31532227 138.86581055 248.18798828 140.18115234 C241.08659831 211.92318866 219.67887816 283.35448936 180.5625 344.3125 C180.08248535 345.06354004 179.6024707 345.81458008 179.10791016 346.58837891 C165.22023566 368.17752654 149.72759062 388.76716563 132.16015625 407.50390625 C130.18852315 409.63564189 128.28780629 411.78982338 126.3984375 413.9921875 C121.87421285 419.18399098 117.00287825 424.01792293 112.125 428.875 C111.22201172 429.78185547 110.31902344 430.68871094 109.38867188 431.62304688 C104.27437294 436.72993915 99.05959275 441.62254595 93.5625 446.3125 C92.37088189 447.35765141 91.18075449 448.4045051 89.9921875 449.453125 C81.72797113 456.6979768 73.2919045 463.63679274 64.5625 470.3125 C63.67304687 470.99747559 63.67304687 470.99747559 62.765625 471.69628906 C45.03984316 485.32203696 26.739407 498.04982817 7.37402344 509.23779297 C5.7370702 510.20893423 4.14618074 511.25671284 2.5625 512.3125 C-3.42671284 512.24992613 -7.73623159 508.92843836 -12.5625 505.75 C-13.40925293 505.20279297 -14.25600586 504.65558594 -15.12841797 504.09179688 C-17.57151885 502.50874582 -20.00539577 500.91237513 -22.4375 499.3125 C-23.530625 498.60222656 -24.62375 497.89195312 -25.75 497.16015625 C-39.03943131 488.42973818 -51.94936463 479.15214492 -64.4375 469.3125 C-65.70787109 468.31669922 -65.70787109 468.31669922 -67.00390625 467.30078125 C-76.57001731 459.73080893 -85.87780178 451.83464091 -94.89526367 443.61914062 C-96.50183653 442.16145309 -98.11488939 440.7108476 -99.73681641 439.27026367 C-105.90199918 433.78932325 -111.80612494 428.09571077 -117.625 422.25 C-118.47513672 421.40373047 -119.32527344 420.55746094 -120.20117188 419.68554688 C-125.15660145 414.72246413 -129.87320679 409.63481326 -134.4375 404.3125 C-135.43510585 403.19057489 -136.43504591 402.07072027 -137.4375 400.953125 C-146.40279017 390.86439092 -154.48032296 380.20601845 -162.4375 369.3125 C-163.22423096 368.24974854 -163.22423096 368.24974854 -164.02685547 367.16552734 C-172.78499817 355.32365201 -180.35890968 342.83552609 -187.78955078 330.12695312 C-189.15791973 327.78998168 -190.54159857 325.46353519 -191.93359375 323.140625 C-238.99775904 243.45387244 -250.55143765 149.07842491 -249.4375 58.3125 C-188.55046499 27.67948546 -123.17929371 9.34076147 -55.4375 2.3125 C-54.61718292 2.22529694 -53.79686584 2.13809387 -52.95169067 2.04824829 C-35.30897307 0.22276575 -17.7209498 -0.0487556 0 0 Z " fill="#68B676" transform="translate(255.4375,-0.3125)"/>
<path d="M0 0 C2.859375 1.53515625 2.859375 1.53515625 5 3 C4.39044005 6.80754114 2.65849472 9.04869901 0.3125 12.0625 C-0.50893247 13.13065007 -1.32916208 14.19972582 -2.1484375 15.26953125 C-2.60186523 15.85943848 -3.05529297 16.4493457 -3.52246094 17.05712891 C-6.33310716 20.75295221 -9.06634406 24.50616564 -11.8125 28.25 C-16.85964206 35.11833228 -21.94395963 41.95668557 -27.09301758 48.74902344 C-29.24080424 51.59454704 -31.3008198 54.4379226 -33.2109375 57.44921875 C-33.80132812 58.29097656 -34.39171875 59.13273437 -35 60 C-35.66 60 -36.32 60 -37 60 C-37.11303467 60.5868457 -37.22606934 61.17369141 -37.3425293 61.77832031 C-38.05824493 64.19681724 -38.96796882 65.5717174 -40.51953125 67.546875 C-41.04135986 68.21895996 -41.56318848 68.89104492 -42.10083008 69.58349609 C-42.66568115 70.29844238 -43.23053223 71.01338867 -43.8125 71.75 C-45.0006849 73.27811354 -46.18816859 74.80677252 -47.375 76.3359375 C-47.97957031 77.11163086 -48.58414063 77.88732422 -49.20703125 78.68652344 C-51.94647835 82.22124576 -54.63335571 85.79446137 -57.3125 89.375 C-58.06442627 90.37926025 -58.06442627 90.37926025 -58.83154297 91.40380859 C-64.00024329 98.31996477 -69.0700625 105.30493021 -74.09765625 112.32421875 C-79.26797066 119.53055075 -84.44351009 126.66966997 -90.05859375 133.5390625 C-92.84035368 137.06523706 -95.41394774 140.73340801 -98.00415039 144.40063477 C-101.79626124 149.75483877 -105.72275309 155.00093104 -109.67211914 160.23974609 C-113.18779703 164.90649475 -116.64205457 169.61336546 -120.06640625 174.34765625 C-124.19444135 180.01015288 -128.42153508 185.60056158 -132.65625 191.18359375 C-136.57385797 196.3619213 -140.30299589 201.66231359 -144 207 C-148.22680946 205.43598151 -150.56174229 202.26793565 -153.3125 198.875 C-154.29371517 197.6883424 -155.27548466 196.50214294 -156.2578125 195.31640625 C-156.72993164 194.74293457 -157.20205078 194.16946289 -157.68847656 193.57861328 C-159.3152421 191.6205593 -160.99391939 189.71290037 -162.6875 187.8125 C-165.97326692 184.08547901 -169.06134938 180.21327332 -172.15234375 176.32421875 C-175.17531091 172.52154336 -178.18440225 168.81559775 -181.625 165.375 C-183.66518194 163.33481806 -185.4213445 161.40952682 -187 159 C-187 158.34 -187 157.68 -187 157 C-187.66 157 -188.32 157 -189 157 C-190.3327188 155.53309441 -191.58913869 153.99677499 -192.8125 152.4375 C-196.60452724 147.69288621 -200.50215715 143.07228566 -204.5 138.5 C-208.99823375 133.34216326 -213.38998046 128.11839706 -217.69921875 122.80078125 C-221.37127702 118.33072051 -225.15709927 113.95940833 -228.9296875 109.57421875 C-231.9682863 106.04143663 -234.98849235 102.49339164 -238 98.9375 C-238.44456543 98.41365723 -238.88913086 97.88981445 -239.34716797 97.35009766 C-241.32714751 95.00998427 -243.27565499 92.6533355 -245.18359375 90.25390625 C-246.95410455 87.96303139 -246.95410455 87.96303139 -249.0625 86 C-251.15508345 83.83991386 -252.54373519 81.62127666 -254 79 C-244.32812197 70.35704517 -231.15475415 65.88377556 -218.21484375 66.55078125 C-200.29164593 69.05523781 -190.42657837 82.50380406 -180.00097656 95.90966797 C-177.02773224 99.72605569 -173.96264636 103.41462823 -170.734375 107.01953125 C-168.63198499 109.42023336 -166.63193794 111.89400948 -164.625 114.375 C-161.58147868 118.126075 -158.44978039 121.7502398 -155.1875 125.3125 C-152.07987111 128.71893936 -149.38587054 132.05812694 -147 136 C-145.04105639 135.88693303 -145.04105639 135.88693303 -143 135 C-142.731875 134.278125 -142.46375 133.55625 -142.1875 132.8125 C-140.7145154 129.32385226 -138.79083586 127.9801517 -135.8984375 125.63671875 C-134.03683387 124.03175595 -132.51680379 122.37993269 -130.9375 120.5 C-127.37236803 116.313423 -123.55626775 112.40358617 -119.6875 108.5 C-119.06415771 107.86384766 -118.44081543 107.22769531 -117.79858398 106.57226562 C-116.91408569 105.68571289 -116.91408569 105.68571289 -116.01171875 104.78125 C-115.48022217 104.24564453 -114.94872559 103.71003906 -114.40112305 103.15820312 C-113 102 -113 102 -111 102 C-110.814375 101.29875 -110.62875 100.5975 -110.4375 99.875 C-108.71703329 96.43406658 -106.63859001 94.80149758 -103.6796875 92.42578125 C-101.78696201 90.81916543 -100.45915348 88.99673634 -99 87 C-98.34 87 -97.68 87 -97 87 C-96.78859375 86.45988281 -96.5771875 85.91976562 -96.359375 85.36328125 C-94.49736973 82.12617438 -91.91872307 79.75272464 -89.25 77.1875 C-84.92438005 72.95433801 -80.88658557 68.64494374 -77 64 C-75.34590312 62.31878678 -73.67948385 60.65553305 -72 59 C-69.2472411 56.27360375 -66.49824521 53.54344511 -63.75 50.8125 C-63.0178125 50.08869141 -62.285625 49.36488281 -61.53125 48.61914062 C-60.83515625 47.92626953 -60.1390625 47.23339844 -59.421875 46.51953125 C-58.78862305 45.89151611 -58.15537109 45.26350098 -57.50292969 44.61645508 C-55.91075025 43.05609672 -55.91075025 43.05609672 -55 41 C-54.34 41 -53.68 41 -53 41 C-53 40.34 -53 39.68 -53 39 C-52.34 39 -51.68 39 -51 39 C-50.66935547 38.17822266 -50.66935547 38.17822266 -50.33203125 37.33984375 C-48.58129871 34.26451006 -46.21052934 31.99841279 -43.6875 29.5625 C-42.9769043 28.86543945 -42.9769043 28.86543945 -42.25195312 28.15429688 C-40.83733614 26.76677242 -39.41868488 25.38336493 -38 24 C-34.78336106 20.84880129 -31.73565909 17.60867934 -28.75195312 14.2409668 C-20.4107628 4.91949679 -13.51740561 -2.4353985 0 0 Z " fill="#FCFEFC" transform="translate(392,134)"/>
<path d="M0 0 C0.92127686 0.00410889 1.84255371 0.00821777 2.79174805 0.01245117 C4.30478516 0.01535156 4.30478516 0.01535156 5.84838867 0.01831055 C6.90606445 0.03055664 7.96374023 0.04280273 9.0534668 0.05541992 C10.09954102 0.05606445 11.14561523 0.05670898 12.22338867 0.05737305 C21.64950796 0.11137373 21.64950796 0.11137373 25.7409668 1.24291992 C26.2359668 2.23291992 26.2359668 2.23291992 26.7409668 3.24291992 C28.71619526 4.29100033 30.71578188 5.29496103 32.7409668 6.24291992 C32.7409668 7.23291992 32.7409668 8.22291992 32.7409668 9.24291992 C32.18151367 8.79303711 31.62206055 8.3431543 31.0456543 7.87963867 C22.9677757 2.14297573 13.37727712 0.92086515 3.7409668 2.24291992 C-3.63832182 4.09910982 -11.26312293 6.4662737 -17.2590332 11.24291992 C-17.9190332 11.24291992 -18.5790332 11.24291992 -19.2590332 11.24291992 C-18.9290332 10.25291992 -18.5990332 9.26291992 -18.2590332 8.24291992 C-17.2690332 8.24291992 -16.2790332 8.24291992 -15.2590332 8.24291992 C-15.2590332 7.58291992 -15.2590332 6.92291992 -15.2590332 6.24291992 C-12.07752151 4.12191213 -9.7599669 3.5689992 -6.09887695 2.80541992 C-3.45453018 1.99695721 -2.85976753 0.3075185 0 0 Z " fill="#7FB78F" transform="translate(159.259033203125,199.757080078125)"/>
<path d="M0 0 C-1.65356922 3.58273331 -3.67980703 6.80973467 -6 10 C-6.66 10 -7.32 10 -8 10 C-8 10.66 -8 11.32 -8 12 C-9.32 12.33 -10.64 12.66 -12 13 C-9.73553176 7.84204456 -6.26609138 0 0 0 Z " fill="#84BD8C" transform="translate(308,263)"/>
<path d="M0 0 C3.125 0.375 3.125 0.375 6 1 C1.55052205 3.36651156 -3.1823534 4.95547103 -7.90625 6.68359375 C-10.68991512 7.86805732 -12.63901703 9.15950646 -15 11 C-15.66 11 -16.32 11 -17 11 C-16.67 10.01 -16.34 9.02 -16 8 C-15.01 8 -14.02 8 -13 8 C-13 7.34 -13 6.68 -13 6 C-9.81848831 3.87899221 -7.50093369 3.32607928 -3.83984375 2.5625 C-1.77592886 2.08890893 -1.77592886 2.08890893 0 0 Z " fill="#78B28A" transform="translate(157,200)"/>
<path d="M0 0 C0.33 0.66 0.66 1.32 1 2 C0.67 2.99 0.34 3.98 0 5 C-0.99 5 -1.98 5 -3 5 C-3.1546875 5.9590625 -3.1546875 5.9590625 -3.3125 6.9375 C-3.539375 7.618125 -3.76625 8.29875 -4 9 C-4.99 9.33 -5.98 9.66 -7 10 C-7 11.32 -7 12.64 -7 14 C-9.90600261 15.25664978 -11.79604584 16 -15 16 C-14.41992188 15.43152344 -13.83984375 14.86304688 -13.2421875 14.27734375 C-8.59383097 9.68268111 -4.17366549 5.029802 0 0 Z " fill="#E3F8E0" transform="translate(315,198)"/>
<path d="M0 0 C0.66 0.33 1.32 0.66 2 1 C-0.60535699 6.89633423 -3.87433086 11.50435702 -10 14 C-7.21612291 8.92351825 -3.59170584 4.5166931 0 0 Z " fill="#83BF8A" transform="translate(264,318)"/>
<path d="M0 0 C0 4.05152798 -1.04967538 6.00730422 -3.83984375 8.921875 C-4.53207031 9.52515625 -5.22429687 10.1284375 -5.9375 10.75 C-6.62714844 11.36359375 -7.31679688 11.9771875 -8.02734375 12.609375 C-10 14 -10 14 -13 14 C-12.34 13.360625 -11.68 12.72125 -11 12.0625 C-7.14346256 8.2170765 -3.59166578 4.09075581 0 0 Z " fill="#DCF5DF" transform="translate(269,246)"/>
<path d="M0 0 C0.66 0.33 1.32 0.66 2 1 C-1.16589254 6.40839975 -5.17514834 10.04174791 -10 14 C-10.66 13.67 -11.32 13.34 -12 13 C-11.21753906 12.22914063 -10.43507813 11.45828125 -9.62890625 10.6640625 C-8.60663943 9.65117427 -7.58451119 8.63814616 -6.5625 7.625 C-6.04623047 7.11710938 -5.52996094 6.60921875 -4.99804688 6.0859375 C-2.142867 3.31431064 -2.142867 3.31431064 0 0 Z " fill="#DDF6E2" transform="translate(355,156)"/>
<path d="M0 0 C0.33 0.66 0.66 1.32 1 2 C-0.5608131 5.04358554 -2.19373073 7.97948613 -5 10 C-6.32 9.67 -7.64 9.34 -9 9 C-6.03 6.03 -3.06 3.06 0 0 Z " fill="#E4F9E4" transform="translate(327,186)"/>
<path d="M0 0 C0 0.66 0 1.32 0 2 C-0.721875 2.268125 -1.44375 2.53625 -2.1875 2.8125 C-5.04615015 3.91906348 -5.04615015 3.91906348 -7.5625 5.6875 C-10 7 -10 7 -12.15234375 6.58203125 C-13.06693359 6.29392578 -13.06693359 6.29392578 -14 6 C-12.54195831 5.18697675 -11.08355685 4.37459869 -9.625 3.5625 C-8.40683594 2.88380859 -8.40683594 2.88380859 -7.1640625 2.19140625 C-3.18360656 0 -3.18360656 0 0 0 Z " fill="#E4F9E9" transform="translate(154,205)"/>
<path d="M0 0 C1.65 0.33 3.3 0.66 5 1 C5.33 2.65 5.66 4.3 6 6 C5.360625 6.103125 4.72125 6.20625 4.0625 6.3125 C3.381875 6.539375 2.70125 6.76625 2 7 C1.67 7.99 1.34 8.98 1 10 C0.34 10 -0.32 10 -1 10 C0.33333333 7.33333333 1.66666667 4.66666667 3 2 C2.01 1.67 1.02 1.34 0 1 C0 0.67 0 0.34 0 0 Z " fill="#88C28C" transform="translate(394,135)"/>
<path d="M0 0 C1 4 1 4 1 6 C0.34 6 -0.32 6 -1 6 C-1.33 7.32 -1.66 8.64 -2 10 C-3.32 9.34 -4.64 8.68 -6 8 C-4.02 5.36 -2.04 2.72 0 0 Z " fill="#83BC8C" transform="translate(340,215)"/>
<path d="M0 0 C0.99 0.33 1.98 0.66 3 1 C2.23883449 2.15227823 1.46567307 3.2966386 0.6875 4.4375 C0.25824219 5.07558594 -0.17101562 5.71367187 -0.61328125 6.37109375 C-2 8 -2 8 -5 9 C-5 7.68 -5 6.36 -5 5 C-4.34 5 -3.68 5 -3 5 C-2.67 4.01 -2.34 3.02 -2 2 C-1.34 2 -0.68 2 0 2 C0 1.34 0 0.68 0 0 Z " fill="#77BB83" transform="translate(297,213)"/>
<path d="M0 0 C0.99 0.33 1.98 0.66 3 1 C0.69 4.3 -1.62 7.6 -4 11 C-4.33 9.68 -4.66 8.36 -5 7 C-4.34 6.67 -3.68 6.34 -3 6 C-2.29788106 4.34795544 -1.63028587 2.68076231 -1 1 C-0.67 0.67 -0.34 0.34 0 0 Z " fill="#E4FBE8" transform="translate(367,175)"/>
<path d="M0 0 C0.66 1.32 1.32 2.64 2 4 C0.35 5.32 -1.3 6.64 -3 8 C-3.66 7.67 -4.32 7.34 -5 7 C-3.35 4.69 -1.7 2.38 0 0 Z " fill="#82BD89" transform="translate(289,284)"/>
<path d="M0 0 C1.32 0.33 2.64 0.66 4 1 C1.69 3.31 -0.62 5.62 -3 8 C-3.33 7.34 -3.66 6.68 -4 6 C-2.68 4.02 -1.36 2.04 0 0 Z " fill="#79B57F" transform="translate(275,236)"/>
<path d="M0 0 C1 2 1 2 0.3125 4.375 C-1.09398311 7.18796623 -2.67557877 8.9080209 -5 11 C-5.66 10.67 -6.32 10.34 -7 10 C-3.535 5.05 -3.535 5.05 0 0 Z " fill="#88C296" transform="translate(328,231)"/>
<path d="M0 0 C0.99 0 1.98 0 3 0 C1.60667426 3.36720387 0.0210714 4.9859524 -3 7 C-2.25 2.25 -2.25 2.25 0 0 Z " fill="#75BA82" transform="translate(305,263)"/>
<path d="M0 0 C1.65 0 3.3 0 5 0 C5.66 2.31 6.32 4.62 7 7 C5.83040013 6.02433888 4.66438823 5.044375 3.5 4.0625 C2.8503125 3.51722656 2.200625 2.97195313 1.53125 2.41015625 C1.0259375 1.94480469 0.520625 1.47945313 0 1 C0 0.67 0 0.34 0 0 Z " fill="#71AA82" transform="translate(120,402)"/>
<path d="M0 0 C1 2 1 2 0.3125 4.5625 C-1 7 -1 7 -3.125 7.8125 C-3.74375 7.874375 -4.3625 7.93625 -5 8 C-1.125 1.125 -1.125 1.125 0 0 Z " fill="#84BD88" transform="translate(295,276)"/>
<path d="M0 0 C0.33 0.66 0.66 1.32 1 2 C-0.3125 4.625 -0.3125 4.625 -2 7 C-2.66 7 -3.32 7 -4 7 C-4 7.66 -4 8.32 -4 9 C-4.66 8.67 -5.32 8.34 -6 8 C-4.02 5.36 -2.04 2.72 0 0 Z " fill="#86C192" transform="translate(364,183)"/>
<path d="M0 0 C1.32 0 2.64 0 4 0 C3.34 2.97 2.68 5.94 2 9 C1 5 1 5 2 2 C1.34 2 0.68 2 0 2 C0 1.34 0 0.68 0 0 Z " fill="#76B37E" transform="translate(476,248)"/>
<path d="M0 0 C0.66 0.33 1.32 0.66 2 1 C-0.475 4.465 -0.475 4.465 -3 8 C-3.66 7.01 -4.32 6.02 -5 5 C-4.01 4.67 -3.02 4.34 -2 4 C-2 3.01 -2 2.02 -2 1 C-1.34 0.67 -0.68 0.34 0 0 Z " fill="#E4FAE7" transform="translate(346,205)"/>
</svg>
